<svg xmlns="http://www.w3.org/2000/svg" viewBox="0 0 24 24" fill="white">
  <path d="M22 5.924c-.793.352-1.644.59-2.538.697a4.48 4.48 0 0 0 1.964-2.474 8.955 8.955 0 0 1-2.833 1.082 4.475 4.475 0 0 0-7.621 4.078A12.692 12.692 0 0 1 3.15 4.89a4.475 4.475 0 0 0 1.385 5.969 4.44 4.44 0 0 1-2.028-.56v.056a4.475 4.475 0 0 0 3.588 4.385 4.52 4.52 0 0 1-2.021.077 4.478 4.478 0 0 0 4.178 3.106A8.975 8.975 0 0 1 2 19.54a12.65 12.65 0 0 0 6.84 2.005c8.208 0 12.694-6.8 12.694-12.694 0-.193-.004-.385-.013-.576A9.063 9.063 0 0 0 22 5.924z"></path>
</svg>
