<svg xmlns="http://www.w3.org/2000/svg" viewBox="0 0 24 24" fill="white">
  <path d="M12 2C6.477 2 2 6.486 2 12c0 4.2 2.614 7.79 6.305 9.228-.087-.785-.166-1.993.034-2.852.182-.785 1.175-5.001 1.175-5.001s-.3-.6-.3-1.488c0-1.394.808-2.435 1.815-2.435.855 0 1.268.642 1.268 1.411 0 .86-.548 2.146-.83 3.339-.237.997.501 1.809 1.485 1.809 1.783 0 3.154-1.882 3.154-4.6 0-2.405-1.728-4.088-4.198-4.088-2.86 0-4.538 2.145-4.538 4.364 0 .864.333 1.79.748 2.292.082.1.093.187.068.289-.075.318-.246.997-.279 1.136-.044.184-.144.223-.333.134-1.24-.578-2.014-2.391-2.014-3.847 0-3.132 2.274-6.005 6.553-6.005 3.44 0 6.115 2.452 6.115 5.73 0 3.418-2.156 6.17-5.151 6.17-1.005 0-1.95-.522-2.273-1.138l-.618 2.355c-.223.859-.826 1.934-1.231 2.59.927.286 1.905.441 2.918.441 5.523 0 10-4.486 10-10S17.523 2 12 2z"></path>
</svg>
