<svg xmlns="http://www.w3.org/2000/svg" viewBox="0 0 32 32" fill="white">
  <path d="M16.001 3C8.822 3 3 8.822 3 16c0 2.823.917 5.43 2.472 7.547L4 29l5.637-1.458A12.94 12.94 0 0 0 16 29c7.178 0 13-5.822 13-13S23.179 3 16.001 3zm0 23.667c-2.385 0-4.592-.73-6.427-1.977l-.459-.298-3.345.864.894-3.258-.312-.477C5.214 19.638 4.667 17.88 4.667 16c0-6.236 5.097-11.333 11.334-11.333 6.235 0 11.333 5.097 11.333 11.333 0 6.237-5.098 11.334-11.333 11.334zm6.201-8.47c-.338-.17-2.003-.987-2.312-1.099-.309-.112-.534-.169-.759.169s-.871 1.099-1.068 1.324c-.197.225-.394.253-.731.084-.338-.169-1.428-.527-2.72-1.682-1.006-.899-1.685-2.007-1.882-2.345-.197-.338-.021-.52.148-.688.151-.15.338-.394.507-.591.169-.197.225-.338.338-.563.112-.225.056-.422-.028-.591-.084-.169-.759-1.832-1.04-2.512-.273-.655-.55-.566-.759-.576l-.647-.011c-.225 0-.591.084-.9.422-.309.338-1.181 1.155-1.181 2.816 0 1.662 1.21 3.268 1.379 3.493.169.225 2.385 3.64 5.78 5.105.807.348 1.437.556 1.929.712.81.258 1.547.222 2.13.135.65-.097 2.003-.818 2.286-1.607.282-.789.282-1.465.197-1.607-.084-.141-.309-.225-.647-.394z"></path>
</svg>
